<?xml version="1.0" standalone="no"?>
<!DOCTYPE svg PUBLIC "-//W3C//DTD SVG 20010904//EN"
 "http://www.w3.org/TR/2001/REC-SVG-20010904/DTD/svg10.dtd">
<svg version="1.0" xmlns="http://www.w3.org/2000/svg"
 width="631.000000pt" height="637.000000pt" viewBox="0 0 631.000000 637.000000"
 preserveAspectRatio="xMidYMid meet">

<g transform="translate(0.000000,637.000000) scale(0.100000,-0.100000)"
fill="#000000" stroke="none">
<path d="M0 3185 l0 -3185 3155 0 3155 0 0 3185 0 3185 -3155 0 -3155 0 0
-3185z m2975 2865 c-3 -5 -16 -10 -28 -10 -18 0 -19 2 -7 10 20 13 43 13 35 0z
m62 4 c-3 -3 -12 -4 -19 -1 -8 3 -5 6 6 6 11 1 17 -2 13 -5z m-207 -34 c-8 -5
-19 -10 -25 -10 -5 0 -3 5 5 10 8 5 20 10 25 10 6 0 3 -5 -5 -10z m995 -11
c33 -6 98 -23 145 -39 47 -15 101 -31 120 -35 19 -4 40 -11 45 -14 6 -4 31
-15 56 -24 86 -32 222 -108 273 -153 28 -24 55 -44 61 -44 5 0 31 -19 57 -43
152 -138 158 -145 158 -171 0 -15 6 -28 13 -30 59 -16 72 -23 72 -41 0 -11 11
-31 23 -45 13 -14 36 -46 50 -71 43 -74 113 -191 138 -229 12 -19 25 -46 29
-60 4 -14 16 -41 26 -61 14 -28 15 -39 6 -48 -9 -10 -8 -12 7 -9 15 2 23 -10
41 -64 13 -36 21 -69 17 -72 -3 -3 0 -6 7 -6 7 0 10 -4 7 -9 -3 -5 1 -22 9
-37 8 -16 15 -40 15 -54 0 -14 6 -34 14 -45 7 -11 16 -32 20 -47 5 -22 3 -26
-9 -22 -8 4 -15 2 -15 -4 0 -5 8 -12 19 -15 21 -5 33 -60 17 -78 -8 -9 -8 -10
2 -5 16 10 16 -40 -1 -90 -19 -56 -22 -145 -5 -142 10 2 14 -29 16 -149 l3
-153 -36 0 c-19 0 -35 -4 -35 -9 0 -5 -3 -17 -6 -26 -4 -10 -2 -15 7 -13 10 2
13 -7 11 -35 -4 -56 -20 -93 -34 -79 -12 12 5 156 21 176 4 6 9 18 9 26 1 8 2
22 3 30 1 8 1 48 1 88 -2 68 -3 72 -24 72 -15 0 -31 -13 -47 -38 -20 -30 -25
-51 -27 -115 -1 -42 2 -80 7 -83 10 -6 10 -87 0 -123 -10 -35 -24 -35 -40 0
-11 26 -11 32 4 49 11 12 13 20 6 25 -6 3 -8 17 -5 31 3 13 2 24 -3 24 -11 0
-13 13 -12 95 1 116 1 141 -4 285 -6 155 -8 172 -20 181 -4 3 -9 18 -11 32 -4
37 -21 54 -56 55 -38 1 -38 -8 -4 -170 34 -161 44 -394 16 -400 -45 -10 -84
91 -47 122 19 16 17 146 -2 162 -7 6 -13 18 -13 28 0 9 -9 42 -21 71 -21 54
-30 73 -57 119 -13 23 -13 24 2 6 13 -16 19 -17 28 -8 10 10 1 24 -45 68 -31
30 -57 62 -57 70 0 8 -10 25 -22 38 -34 33 -78 103 -78 122 0 10 -20 36 -44
58 -24 23 -49 51 -55 64 -14 27 -35 30 -28 3 7 -29 -26 -15 -66 27 -53 57
-108 102 -134 108 -13 4 -23 10 -23 15 0 5 -7 9 -15 9 -15 0 -24 8 -81 71 -17
19 -50 49 -73 68 -27 22 -40 39 -36 49 7 19 -26 44 -41 31 -7 -6 -19 -2 -32
10 -24 20 -31 41 -8 22 9 -8 16 -8 20 -2 7 11 -29 25 -44 16 -15 -9 -50 4 -50
20 0 8 -7 11 -20 8 -12 -3 -20 0 -20 6 0 7 -5 9 -11 6 -6 -4 -22 3 -35 16 -21
20 -27 21 -34 9 -7 -12 -13 -11 -33 8 -13 12 -31 22 -40 22 -9 0 -17 5 -17 10
0 6 -19 10 -43 10 -23 0 -67 7 -97 15 -93 27 -234 65 -251 70 -37 8 -117 55
-154 90 -22 20 -53 42 -68 47 -26 10 -28 14 -24 47 11 80 37 129 91 171 168
129 368 171 621 129z m-1125 -29 c-20 -13 -33 -13 -25 0 3 6 14 10 23 10 15 0
15 -2 2 -10z m90 -30 c0 -5 -2 -10 -4 -10 -3 0 -8 5 -11 10 -3 6 -1 10 4 10 6
0 11 -4 11 -10z m383 -75 c-3 -8 -9 -15 -14 -15 -10 0 -12 24 -3 33 11 11 24
-3 17 -18z m-794 -18 c-2 -1 -13 -9 -24 -17 -19 -14 -19 -14 -6 3 7 9 18 17
24 17 6 0 8 -1 6 -3z m-216 -142 c-3 -9 -8 -14 -10 -11 -3 3 -2 9 2 15 9 16
15 13 8 -4z m-35 -35 c-7 -11 -17 -20 -22 -20 -5 0 -1 9 9 20 10 11 20 20 22
20 2 0 -2 -9 -9 -20z m629 -87 c7 -18 10 -44 7 -58 -10 -41 -31 -48 -182 -61
-66 -6 -72 -5 -66 10 4 10 28 38 54 62 27 25 60 70 75 101 l26 57 36 -39 c20
-22 42 -54 50 -72z m-452 57 c-3 -5 -14 -10 -23 -9 -14 0 -13 2 3 9 27 11 27
11 20 0z m-379 -145 c-8 -8 -18 -15 -22 -15 -3 0 -1 7 6 15 7 8 17 15 22 15 5
0 3 -7 -6 -15z m91 -20 c-10 -7 -17 -20 -17 -29 0 -9 -8 -16 -18 -16 -10 0
-24 -6 -30 -12 -7 -7 -6 2 3 20 9 17 22 32 30 32 7 0 16 7 19 16 3 8 11 12 17
8 9 -5 7 -11 -4 -19z m1291 -61 c48 -10 41 -8 83 -28 20 -10 44 -32 53 -48 17
-28 17 -30 -1 -50 -19 -21 -22 -23 -148 -70 -83 -31 -110 -40 -233 -82 -141
-48 -150 -54 -166 -110 -9 -28 -20 -78 -26 -110 -10 -62 -5 -75 29 -76 23 0
71 -51 71 -76 0 -14 -19 -39 -57 -70 -31 -27 -86 -75 -122 -108 -36 -32 -86
-71 -111 -87 l-45 -29 46 0 c33 0 66 10 119 37 83 42 160 53 237 34 54 -14 72
-33 73 -76 0 -26 -6 -33 -47 -52 -27 -11 -78 -31 -114 -43 -37 -13 -77 -31
-89 -40 l-23 -18 31 -38 c18 -21 32 -47 32 -58 0 -22 -42 -142 -70 -201 -11
-22 -22 -55 -26 -73 l-6 -32 103 0 c196 -1 319 -31 356 -86 13 -20 13 -29 3
-53 -21 -51 -51 -56 -290 -53 -118 2 -233 -1 -255 -7 -90 -21 -191 -53 -200
-62 -5 -5 -17 -9 -26 -9 -9 0 -27 -9 -40 -21 -13 -11 -19 -18 -13 -15 15 7 72
-32 98 -67 17 -23 21 -43 21 -103 0 -74 -1 -76 -35 -104 -40 -33 -41 -34 -93
-19 -45 12 -44 28 1 48 37 17 50 50 36 90 -22 61 -114 63 -173 4 -31 -31 -33
-37 -29 -81 8 -67 10 -74 38 -102 30 -31 33 -56 5 -53 -11 0 -58 15 -105 33
-47 17 -98 34 -115 37 -16 3 -33 9 -36 15 -3 5 -40 10 -81 11 -114 2 -202 -31
-282 -106 -38 -36 -56 -82 -60 -158 -3 -39 -9 -76 -15 -82 -8 -8 -11 -6 -11 5
0 22 -56 68 -82 68 -11 0 -40 -20 -64 -44 -35 -35 -44 -50 -44 -78 0 -39 19
-62 47 -56 12 2 18 13 18 33 1 40 31 47 45 10 22 -58 5 -92 -55 -105 -96 -22
-166 27 -185 129 -6 31 -22 91 -37 134 -41 125 -23 196 59 217 21 6 38 16 38
21 0 36 35 122 54 134 20 14 26 14 52 0 16 -8 32 -15 36 -15 4 0 31 -23 60
-51 95 -91 183 -105 238 -38 31 38 55 74 58 89 12 62 14 90 3 90 -6 0 -11 5
-11 12 0 24 -43 58 -74 58 -35 0 -76 -35 -76 -65 0 -12 12 -32 27 -46 14 -13
23 -18 19 -11 -4 6 -2 12 3 12 16 0 14 -11 -6 -32 -22 -24 -46 -23 -80 6 -23
20 -28 32 -27 66 2 53 40 95 104 114 25 8 63 25 84 40 42 28 93 41 125 31 11
-3 34 -19 52 -36 35 -32 55 -36 85 -15 11 8 36 17 56 21 35 7 36 8 46 72 13
76 34 100 95 107 236 29 259 40 337 157 28 41 53 79 58 84 14 17 32 77 32 106
0 26 -3 29 -34 29 -18 0 -83 -20 -142 -44 -286 -114 -343 -112 -344 15 0 39 5
52 31 77 16 16 49 38 72 48 23 10 47 23 53 29 6 5 21 17 34 25 12 8 32 24 44
35 22 19 98 84 155 132 123 103 146 145 116 209 -29 61 -29 89 1 166 15 40 31
78 35 83 5 6 11 29 15 52 3 22 9 45 13 51 3 6 33 13 65 16 34 3 83 17 115 32
61 30 181 120 181 136 0 14 -58 6 -175 -26 -108 -30 -229 -85 -275 -125 -15
-15 -58 -52 -94 -84 -36 -32 -66 -64 -66 -70 0 -7 14 -27 31 -45 29 -31 31
-37 30 -110 -1 -110 -31 -207 -72 -227 -16 -9 -38 -14 -48 -10 -47 15 -65 137
-36 245 8 30 15 70 15 88 0 26 -4 32 -22 32 -12 0 -31 8 -42 18 -28 25 -99 52
-136 52 -41 0 -60 -34 -71 -126 -4 -42 -10 -83 -13 -92 -3 -10 -8 -44 -11 -77
-14 -154 -29 -183 -91 -166 -35 9 -77 84 -71 126 5 33 52 189 66 220 15 31 61
172 61 187 1 7 10 24 21 37 17 21 22 22 30 10 5 -7 9 -22 9 -31 0 -29 12 -48
29 -48 36 1 175 54 326 125 439 207 645 265 813 229z m-1248 -23 c0 -8 -43
-41 -54 -41 -2 0 5 11 17 25 23 25 37 32 37 16z m-140 -32 c0 -5 6 -7 13 -3 8
5 7 2 -2 -9 -10 -13 -17 -15 -27 -6 -8 6 -11 15 -8 20 7 12 24 11 24 -2z m-24
-35 c-4 -9 -1 -23 5 -30 11 -14 5 -34 -11 -34 -5 0 -6 8 -3 18 6 15 5 15 -10
3 -10 -8 -15 -16 -12 -19 8 -8 -16 -32 -31 -32 -20 0 -17 26 4 42 9 7 23 25
31 41 15 29 37 38 27 11z m336 -9 c0 -5 -5 -11 -11 -13 -6 -2 -11 4 -11 13 0
9 5 15 11 13 6 -2 11 -8 11 -13z m-484 -25 c-7 -11 -17 -20 -22 -20 -5 0 -1 9
9 20 10 11 20 20 22 20 2 0 -2 -9 -9 -20z m1802 7 c0 -7 -14 -32 -31 -55 -31
-43 -23 -57 17 -27 43 33 93 5 52 -29 -16 -14 -19 -26 -15 -51 5 -30 2 -36
-33 -60 -42 -29 -53 -48 -45 -76 9 -26 16 -24 45 17 14 19 37 41 52 50 26 14
28 13 34 -10 4 -17 -2 -31 -20 -51 -33 -35 -33 -43 2 -50 39 -9 51 -17 70 -47
11 -19 13 -31 6 -38 -18 -18 -61 6 -86 49 -24 43 -54 50 -70 18 -4 -10 -12
-25 -17 -34 -5 -12 -20 -18 -42 -18 -37 0 -36 -7 -21 96 6 44 15 63 40 88 32
33 44 81 19 81 -16 0 -47 -22 -86 -60 -16 -17 -34 -30 -39 -30 -19 0 6 72 37
109 17 20 49 60 71 89 40 51 60 64 60 39z m-1735 -77 c3 -5 1 -10 -4 -10 -6 0
-11 5 -11 10 0 6 2 10 4 10 3 0 8 -4 11 -10z m-32 -51 c-14 -24 -19 -27 -22
-13 -2 10 5 24 15 31 26 19 27 16 7 -18z m-143 -34 c0 -8 -4 -15 -10 -15 -5 0
-7 7 -4 15 4 8 8 15 10 15 2 0 4 -7 4 -15z m-20 -34 c0 -6 -4 -13 -10 -16 -5
-3 -10 1 -10 9 0 9 5 16 10 16 6 0 10 -4 10 -9z m-60 -98 c0 -5 -9 -21 -20
-38 -14 -21 -20 -25 -20 -12 0 9 5 17 10 17 6 0 9 3 9 8 -3 18 2 32 11 32 6 0
10 -3 10 -7z m2800 -37 c0 -11 -19 -15 -25 -6 -3 5 1 10 9 10 9 0 16 -2 16 -4z
m-2873 -139 c-9 -18 -19 -44 -22 -59 -4 -16 -11 -28 -16 -28 -6 0 -5 8 1 19 5
11 10 26 10 34 0 24 33 93 37 79 3 -7 -2 -27 -10 -45z m-67 -192 c-17 -59 -24
-52 -9 9 6 26 14 44 17 42 2 -3 -1 -26 -8 -51z m2529 -329 c49 -31 91 -82 91
-109 -1 -47 -48 -80 -175 -127 -49 -18 -96 -35 -102 -37 -24 -9 -13 15 37 77
54 67 66 106 56 175 l-7 45 31 0 c17 0 48 -11 69 -24z m413 -316 c72 -23 98
-53 78 -90 -13 -24 -38 -30 -115 -27 -83 3 -267 -39 -327 -76 -53 -32 -63 -57
-22 -57 55 0 104 -45 103 -95 0 -28 -10 -47 -53 -108 -10 -15 -16 -33 -13 -41
5 -12 162 -136 173 -136 7 0 76 -52 89 -66 24 -28 137 -102 196 -128 99 -45
180 -81 227 -101 44 -19 46 -24 43 -90 -3 -47 -7 -53 -24 -35 -9 10 -9 11 1 6
6 -4 12 -2 12 3 0 20 -112 13 -148 -9 -19 -12 -41 -20 -50 -18 -10 1 -23 -1
-31 -6 -7 -5 -36 -10 -65 -12 -56 -4 -72 -7 -99 -19 -10 -4 -20 -5 -23 -2 -9
9 79 46 125 53 53 8 51 30 -4 52 -71 28 -182 105 -262 182 -128 124 -225 200
-253 200 -8 0 -42 -26 -75 -56 -57 -53 -200 -154 -218 -154 -5 0 -39 -15 -76
-34 -37 -18 -78 -37 -91 -41 -14 -4 -40 -14 -58 -22 -75 -35 -44 14 47 74 155
102 273 208 307 275 l24 47 -35 41 c-54 64 -49 72 38 64 l74 -6 21 34 c28 44
28 66 1 89 -26 22 -58 20 -148 -11 l-64 -22 -90 22 c-49 12 -99 27 -111 33
-44 25 -42 47 4 47 49 0 201 40 265 70 11 5 54 21 95 36 41 15 118 42 170 61
110 40 254 86 291 92 3 1 35 -8 71 -19z m619 -53 c-1 -12 -15 -9 -19 4 -3 6 1
10 8 8 6 -3 11 -8 11 -12z m279 -227 c0 -47 -6 -86 -15 -104 -8 -15 -15 -39
-15 -51 0 -13 -6 -36 -14 -52 -8 -15 -22 -49 -31 -75 -15 -43 -20 -48 -47 -48
-23 0 -28 3 -20 13 6 6 10 15 10 20 1 28 16 67 27 67 21 0 39 28 27 43 -7 8
-6 18 4 32 8 10 12 27 9 36 -3 9 2 25 11 34 10 9 19 31 21 49 2 17 5 40 8 51
2 11 4 36 4 55 2 70 21 7 21 -70z m-324 50 c0 -11 -4 -20 -8 -20 -10 0 -11 24
-1 33 9 9 9 10 9 -13z m-3428 -63 c2 -28 -1 -37 -12 -37 -12 0 -16 11 -16 41
0 52 24 48 28 -4z m3586 7 c3 -9 1 -34 -5 -57 -13 -47 -29 -34 -29 24 0 48 21
68 34 33z m-218 -53 c6 -35 -11 -43 -18 -8 -5 24 1 51 9 44 2 -3 7 -19 9 -36z
m100 -18 c-5 -12 -10 -13 -18 -5 -8 8 -8 15 3 28 15 18 25 4 15 -23z m180 -35
c-18 -26 -22 -17 -5 14 6 11 13 17 16 15 3 -3 -2 -16 -11 -29z m-3632 0 c10
-38 6 -45 -9 -18 -17 29 -18 40 -6 40 5 0 11 -10 15 -22z m3556 -8 c0 -5 -4
-10 -10 -10 -5 0 -10 5 -10 10 0 6 5 10 10 10 6 0 10 -4 10 -10z m90 -40 c0
-4 -7 -13 -15 -20 -13 -11 -15 -8 -15 13 0 19 4 25 15 21 8 -4 15 -10 15 -14z
m-292 -81 c-2 -6 -8 -10 -13 -10 -5 0 -11 4 -13 10 -2 6 4 11 13 11 9 0 15 -5
13 -11z m-81 -101 c-2 -18 -4 -6 -4 27 0 33 2 48 4 33 2 -15 2 -42 0 -60z
m-1981 48 c3 -8 1 -24 -5 -35 -14 -26 3 -65 34 -79 19 -9 26 -5 53 24 41 45
71 56 115 42 38 -12 64 -48 59 -82 -2 -12 -15 -38 -29 -58 -22 -33 -24 -41
-15 -82 14 -69 8 -128 -20 -182 -35 -66 -65 -87 -136 -92 -57 -4 -59 -3 -85
31 -32 43 -34 75 -6 106 20 22 50 22 74 0 5 -5 19 -9 31 -9 54 0 67 86 19 127
-25 22 -36 25 -81 21 -74 -6 -117 -38 -155 -116 l-31 -62 -35 47 c-23 32 -59
62 -105 88 -65 37 -108 76 -108 96 0 5 19 9 43 9 60 0 134 39 193 101 62 65
106 104 125 112 27 10 60 7 65 -7z m2325 -60 c15 9 10 -23 -6 -36 -17 -14 -21
-35 -5 -25 12 7 -6 -43 -22 -62 -7 -9 -7 -13 1 -13 6 0 11 -12 11 -26 0 -19
-7 -28 -30 -37 -17 -6 -33 -21 -36 -32 -7 -19 -25 -46 -71 -103 -33 -40 -28
-10 7 41 17 25 30 48 30 51 0 8 27 69 66 150 18 37 21 52 12 57 -9 6 -7 13 7
29 11 12 21 17 23 11 2 -6 8 -9 13 -5z m-3038 -170 c34 -15 83 -29 120 -33 49
-4 71 -12 103 -37 23 -17 39 -35 36 -41 -3 -5 -2 -7 2 -3 14 12 137 -77 157
-115 30 -55 -32 -157 -95 -157 -27 0 -76 29 -76 45 0 2 16 12 35 21 30 14 34
20 29 43 -8 32 -32 61 -51 61 -20 0 -99 -56 -107 -75 -3 -9 -6 -29 -6 -43 0
-31 31 -118 43 -120 4 -1 20 -8 35 -16 15 -8 54 -17 87 -20 56 -6 63 -5 109
26 35 23 57 49 76 86 37 73 42 76 73 51 15 -11 25 -24 22 -28 -6 -11 53 -65
95 -86 63 -32 156 -22 240 26 8 5 26 14 39 19 13 6 49 32 80 58 31 27 72 59
91 72 19 13 37 27 40 31 11 15 114 70 182 97 101 40 157 52 236 51 l67 -1 -75
-12 c-84 -13 -186 -52 -264 -99 -64 -40 -57 -34 -146 -113 -41 -36 -109 -93
-150 -126 -41 -33 -85 -69 -98 -79 -12 -10 -25 -19 -28 -19 -3 0 -25 -13 -49
-29 -48 -32 -64 -38 -115 -45 -19 -2 -48 -7 -64 -11 -40 -11 -97 -12 -121 -4
-11 4 -43 10 -70 13 -28 4 -66 15 -85 25 -20 10 -51 22 -70 26 -19 4 -52 16
-72 26 -28 14 -38 16 -38 7 0 -17 78 -98 94 -98 6 0 19 -8 27 -18 35 -41 268
-90 334 -70 17 4 61 15 98 23 80 17 203 82 292 155 33 27 65 49 72 49 6 1 13
5 15 10 2 7 80 75 113 99 6 4 36 26 67 49 31 24 76 53 100 65 24 12 45 25 48
28 3 4 32 17 65 30 33 13 65 27 70 31 6 4 46 17 90 30 84 23 252 38 225 19 -8
-5 -29 -10 -46 -10 -36 0 -123 -24 -179 -49 -22 -10 -51 -22 -65 -26 -104 -32
-292 -155 -440 -289 -25 -23 -67 -59 -94 -81 -26 -22 -56 -47 -65 -55 -9 -8
-32 -26 -51 -40 -56 -39 -64 -50 -51 -63 18 -18 13 -31 -20 -50 -29 -16 -34
-16 -56 -2 -23 15 -26 15 -51 -1 -54 -35 -66 -67 -24 -63 42 4 120 -12 133
-27 6 -8 15 -12 19 -9 5 3 11 1 15 -5 3 -5 14 -10 25 -10 10 0 21 -7 24 -16 3
-8 2 -12 -4 -9 -6 3 -10 1 -10 -4 0 -6 5 -11 12 -11 6 0 3 -7 -8 -15 -20 -15
-13 -18 24 -9 17 5 21 11 17 25 -7 23 -2 23 56 6 66 -20 106 0 68 34 -18 15
-101 36 -123 30 -5 -1 -6 5 -3 14 4 9 1 15 -7 15 -8 0 -13 -8 -12 -17 0 -10
-6 -18 -14 -18 -8 0 -14 6 -13 12 3 15 -42 47 -56 39 -5 -3 -12 1 -15 9 -4 12
0 14 22 10 19 -4 22 -3 9 3 -17 7 -17 9 -4 21 10 8 32 11 63 7 54 -6 74 -20
56 -38 -9 -9 -12 -9 -12 1 0 7 -5 9 -10 6 -16 -10 -1 -25 25 -25 18 0 23 4 18
16 -4 11 0 14 18 11 13 -2 32 -7 42 -10 9 -4 25 -10 35 -14 9 -3 25 -8 35 -9
10 -2 36 -13 58 -25 23 -11 55 -19 72 -18 18 2 41 -2 52 -9 17 -10 18 -13 5
-21 -20 -13 -8 -22 35 -26 31 -3 35 -1 30 15 -5 15 -2 17 15 13 23 -6 29 -14
36 -45 3 -13 7 -30 9 -38 2 -8 4 -19 4 -23 1 -5 5 -6 10 -2 5 3 19 -7 31 -22
l21 -27 -20 -8 c-31 -11 -48 0 -45 28 1 13 -4 31 -12 38 -8 8 -14 21 -14 29 0
22 -12 28 -24 13 -6 -8 -27 -17 -47 -20 -20 -3 -48 -10 -63 -15 -14 -6 -26 -9
-26 -6 0 2 -14 0 -31 -5 -17 -5 -40 -5 -54 0 -16 6 -27 5 -35 -4 -8 -10 -20
-11 -48 -5 -48 11 -73 10 -44 -2 26 -10 25 -31 -1 -35 -9 -1 -15 2 -11 7 3 5
-5 13 -16 17 -20 8 -21 10 -7 24 15 14 14 16 -6 22 -33 9 -37 8 -37 -12 0 -10
-6 -24 -12 -32 -11 -12 -10 -12 5 -1 14 11 20 11 32 1 8 -7 15 -19 15 -28 0
-12 -9 -14 -52 -9 -58 7 -109 46 -103 78 3 12 -1 16 -11 12 -13 -5 -15 -10
-18 -45 -1 -7 6 -12 15 -10 9 1 19 -4 23 -13 7 -19 -27 -20 -43 -1 -7 8 -20
12 -30 9 -10 -2 -33 3 -52 11 -19 9 -26 14 -17 12 9 -3 19 2 22 11 8 19 5 22
-24 28 -13 3 -26 9 -29 14 -4 5 -20 13 -36 17 -17 4 -40 13 -51 21 -26 16 -94
27 -94 14 0 -5 12 -24 28 -42 15 -18 20 -29 12 -24 -8 5 -27 10 -44 12 -32 3
-56 19 -56 37 0 8 -45 11 -148 11 -81 1 -178 7 -217 14 -144 26 -302 115 -409
229 -66 71 -130 154 -148 194 -44 94 -56 126 -59 153 -2 17 -9 39 -16 50 -15
23 -17 65 -3 65 6 0 10 -9 10 -21 0 -42 51 -101 131 -150 21 -13 42 -34 48
-46 6 -13 15 -23 21 -23 5 0 10 -5 10 -11 0 -22 90 -147 136 -187 115 -101
205 -144 327 -156 47 -4 48 -4 31 15 -9 10 -22 19 -28 19 -22 0 -166 80 -166
93 0 4 -6 7 -12 7 -14 0 -168 157 -168 171 0 26 47 -12 76 -61 10 -16 23 -30
28 -30 5 0 25 -17 45 -37 33 -34 147 -99 189 -108 9 -2 35 -11 57 -20 25 -11
79 -19 141 -23 94 -4 106 -3 158 21 55 25 78 45 34 28 -37 -14 -177 -4 -272
18 -70 17 -101 31 -150 66 -113 82 -152 129 -223 275 -66 134 -104 194 -153
237 -31 29 -34 29 -48 -2 -8 -17 -8 -33 -2 -51 17 -43 12 -64 -17 -75 -34 -13
-65 0 -89 36 -53 81 7 211 116 252 57 22 175 12 243 -21z m2896 -19 c-38 -99
-100 -155 -134 -121 -37 37 -37 51 1 74 39 25 56 20 31 -8 -17 -19 -23 -62 -9
-62 10 0 37 37 82 113 36 59 52 61 29 4z m-94 -157 c-3 -5 -12 -10 -18 -10 -7
0 -6 4 3 10 19 12 23 12 15 0z m38 -47 c-3 -10 -13 -24 -21 -30 -9 -7 -13 -13
-9 -13 3 0 1 -13 -4 -29 -8 -21 -16 -28 -34 -27 -27 1 -23 14 19 59 14 15 26
32 26 37 0 7 7 12 27 19 1 1 0 -7 -4 -16z m-165 -33 c-7 -11 -17 -20 -22 -20
-5 0 -1 9 9 20 10 11 20 20 22 20 2 0 -2 -9 -9 -20z m-58 -22 c12 -23 13 -31
2 -48 -19 -31 -15 -31 24 -5 20 14 40 25 44 25 4 0 13 11 20 25 8 14 18 24 24
22 17 -6 7 -39 -25 -79 -16 -20 -29 -42 -29 -48 0 -6 -6 -13 -14 -16 -8 -3
-14 -13 -14 -22 1 -29 -25 -116 -41 -134 -14 -18 -42 -25 -40 -10 3 18 -2 32
-12 32 -6 0 -9 -7 -5 -15 4 -12 -24 -56 -54 -85 -3 -3 -6 -12 -8 -20 -5 -21
-78 -90 -96 -90 -8 0 -19 -6 -23 -12 -9 -15 -130 -96 -183 -123 -51 -26 -162
-65 -187 -65 -12 0 -25 -5 -28 -11 -4 -6 -19 -7 -36 -4 -19 4 -29 3 -29 -5 0
-7 -7 -10 -16 -6 -8 3 -13 2 -10 -3 3 -4 -7 -14 -22 -20 -20 -9 -27 -10 -30
-1 -3 7 -10 3 -19 -9 -17 -25 -39 -27 -51 -5 -6 11 -11 13 -16 5 -4 -6 -12
-11 -17 -11 -6 0 -7 5 -4 10 9 14 -6 12 -35 -6 -23 -14 -23 -14 -2 -9 25 7 31
-10 6 -19 -28 -11 -40 -7 -41 14 -1 13 4 20 17 20 10 0 22 5 25 10 3 6 20 10
36 10 21 0 28 4 23 12 -5 7 -2 9 9 5 10 -4 14 -2 11 6 -6 17 -56 18 -69 2 -5
-7 -27 -18 -47 -23 -33 -9 -40 -8 -51 9 -8 10 -17 16 -20 13 -4 -4 -14 -1 -23
7 -10 8 -19 13 -21 12 -1 -2 -8 -3 -15 -3 -9 0 -9 3 0 12 10 10 16 8 29 -5 16
-16 19 -15 45 10 26 25 34 27 103 25 53 -1 80 -6 91 -17 18 -17 40 -20 49 -5
4 6 3 10 -2 9 -12 -3 -43 12 -43 20 0 4 16 6 35 5 26 -2 33 0 28 11 -3 8 -1
15 5 15 6 0 13 -6 15 -12 3 -8 6 -5 6 5 1 15 7 18 34 13 27 -5 29 -5 9 4 -19
8 -21 13 -12 30 13 24 33 26 50 5 7 -8 19 -15 27 -15 7 0 16 7 19 15 9 22 34
18 34 -5 0 -14 -7 -20 -22 -20 -17 0 -19 -3 -10 -9 17 -10 116 37 157 75 18
17 33 23 44 18 9 -4 21 -8 26 -9 17 -2 89 46 117 79 23 27 27 29 33 14 9 -23
20 -23 56 3 26 18 44 59 19 44 -5 -3 -10 -2 -10 3 0 6 -13 15 -30 21 -32 11
-44 51 -15 51 14 0 14 3 0 24 -20 30 -2 46 24 22 14 -13 24 -14 45 -7 14 6 26
8 26 4 0 -3 13 12 29 33 17 23 25 43 20 49 -12 12 -12 42 0 47 5 2 2 10 -7 18
-14 13 -15 12 -9 -3 8 -22 -4 -28 -27 -12 -20 15 -14 35 12 35 14 0 14 2 -2
18 -13 12 -20 13 -23 5 -5 -14 -33 -6 -33 10 0 5 15 23 32 39 43 38 95 36 118
-4z m112 -109 c-5 -11 -12 -20 -16 -19 -5 1 -12 -4 -17 -11 -4 -8 -11 -10 -15
-6 -4 3 -1 14 6 22 11 13 15 13 21 3 6 -9 9 -6 9 10 0 12 4 22 10 22 5 0 6 -9
2 -21z m-598 -51 c-19 -23 -45 -35 -43 -20 1 15 18 46 18 35 1 -7 6 -13 11
-13 6 0 8 12 6 27 -5 24 -4 25 11 11 14 -15 14 -18 -3 -40z m350 33 c3 -5 -1
-12 -10 -15 -27 -10 -44 -7 -44 9 0 16 45 21 54 6z m-444 -75 c-15 -15 -18 -5
-12 39 l5 40 8 -35 c4 -19 4 -39 -1 -44z m250 51 c0 -8 9 -22 20 -32 11 -10
20 -23 20 -28 0 -6 -13 3 -30 19 -29 29 -39 54 -20 54 6 0 10 -6 10 -13z m104
-11 c-6 -16 -24 -23 -24 -8 0 10 22 33 27 28 2 -2 1 -11 -3 -20z m-219 -36 c3
-5 1 -10 -4 -10 -6 0 -11 5 -11 10 0 6 2 10 4 10 3 0 8 -4 11 -10z m-258 -39
c10 -16 9 -20 -7 -24 -26 -7 -50 21 -29 34 20 12 23 12 36 -10z m381 7 c19
-19 14 -25 -15 -23 -39 3 -43 4 -43 14 0 8 12 14 41 20 3 0 10 -4 17 -11z
m-148 -38 c0 -5 -5 -10 -11 -10 -5 0 -7 5 -4 10 3 6 8 10 11 10 2 0 4 -4 4
-10z m-300 -31 c0 -16 -26 -39 -44 -39 -7 0 -2 28 8 52 10 21 36 12 36 -13z
m45 11 c3 -5 2 -10 -4 -10 -5 0 -13 5 -16 10 -3 6 -2 10 4 10 5 0 13 -4 16
-10z m125 -19 c0 -5 9 -11 20 -14 26 -7 26 -27 0 -34 -29 -8 -21 -38 10 -38
35 0 39 -30 4 -33 -19 -1 -27 4 -31 18 -3 11 -14 20 -24 20 -25 0 -24 27 1 35
25 8 26 31 3 44 -17 10 -17 10 0 11 9 0 17 -4 17 -9z m380 -27 c0 -9 -9 -18
-20 -21 -12 -3 -19 -12 -18 -22 2 -9 -3 -16 -9 -15 -38 3 -43 5 -43 17 0 24
37 49 83 56 4 0 7 -6 7 -15z m-655 -5 c4 -5 -3 -9 -14 -9 -26 0 -35 15 -11 17
11 1 22 -2 25 -8z m45 -10 c0 -4 -7 -6 -15 -3 -8 4 -15 10 -15 15 0 4 7 6 15
3 8 -4 15 -10 15 -15z m436 13 c7 -5 7 -13 -1 -28 -8 -17 -15 -19 -33 -13 -19
7 -21 12 -12 29 11 21 27 25 46 12z m-66 -6 c0 -3 -4 -8 -10 -11 -5 -3 -10 -1
-10 4 0 6 5 11 10 11 6 0 10 -2 10 -4z m-40 -19 c0 -7 9 -18 20 -25 22 -14 27
-32 8 -32 -37 1 -79 70 -43 70 8 0 15 -6 15 -13z m-744 -14 c-4 -9 -1 -20 6
-25 9 -5 10 -8 1 -8 -6 0 -14 4 -17 9 -6 10 3 41 11 41 3 0 2 -8 -1 -17z m534
2 c0 -8 -7 -15 -15 -15 -16 0 -20 12 -8 23 11 12 23 8 23 -8z m-243 -11 c-3
-3 -12 -4 -19 -1 -8 3 -5 6 6 6 11 1 17 -2 13 -5z m-7 -24 c0 -5 -4 -10 -10
-10 -5 0 -10 5 -10 10 0 6 5 10 10 10 6 0 10 -4 10 -10z m162 -32 c-23 -15
-52 -15 -52 1 0 3 12 13 28 21 38 22 61 2 24 -22z m98 -13 c-11 -13 -50 -9
-50 4 0 14 11 18 35 13 19 -3 23 -8 15 -17z m278 12 c9 4 13 1 10 -7 -7 -23
-26 -22 -39 2 -9 18 -9 21 1 11 7 -6 19 -9 28 -6z m-703 -6 c3 -5 1 -12 -4
-15 -5 -3 -11 1 -15 9 -6 16 9 21 19 6z m637 -23 c24 -3 37 -28 16 -28 -22 0
-60 40 -51 53 5 8 9 7 11 -5 2 -9 13 -18 24 -20z m-872 12 c0 -5 5 -10 11 -10
5 0 7 6 3 13 -5 7 0 6 11 -3 14 -11 17 -11 11 -1 -7 10 -2 12 25 6 19 -4 43
-11 53 -15 19 -6 18 -8 -6 -24 -24 -16 -29 -16 -64 -1 -23 10 -40 12 -44 6 -6
-11 -50 -3 -50 8 0 12 23 31 37 31 7 0 13 -4 13 -10z m785 -10 c3 -5 1 -10 -4
-10 -6 0 -11 5 -11 10 0 6 2 10 4 10 3 0 8 -4 11 -10z m-75 -10 c0 -5 -2 -10
-4 -10 -3 0 -8 5 -11 10 -3 6 -1 10 4 10 6 0 11 -4 11 -10z m110 -25 c7 -9 8
-15 2 -15 -5 0 -12 7 -16 15 -3 8 -4 15 -2 15 2 0 9 -7 16 -15z m-276 -14 c3
-4 -1 -16 -8 -26 -13 -17 -13 -17 -13 8 0 26 10 36 21 18z m-1114 -171 c0 -5
-2 -10 -4 -10 -3 0 -8 5 -11 10 -3 6 -1 10 4 10 6 0 11 -4 11 -10z m-25 -20
c3 -5 1 -10 -4 -10 -6 0 -11 5 -11 10 0 6 2 10 4 10 3 0 8 -4 11 -10z m75 -1
c0 -5 -4 -7 -10 -4 -5 3 -10 0 -10 -8 0 -10 -7 -13 -20 -10 -11 3 -20 10 -20
15 0 6 7 8 15 4 8 -3 15 -1 15 4 0 6 7 10 15 10 8 0 15 -5 15 -11z m878 -74
c-3 -3 -9 2 -12 12 -6 14 -5 15 5 6 7 -7 10 -15 7 -18z m-118 2 c0 -19 -10
-27 -26 -20 -11 4 -12 9 -3 19 15 18 29 18 29 1z m-140 -11 c0 -11 -19 -15
-25 -6 -3 5 1 10 9 10 9 0 16 -2 16 -4z m60 -6 c0 -13 -11 -13 -30 0 -12 8
-11 10 8 10 12 0 22 -4 22 -10z m-880 -322 c11 -18 19 -40 17 -48 -3 -19 -39
-36 -94 -45 -51 -8 -54 1 -14 47 15 18 31 43 35 56 10 31 33 27 56 -10z m1089
-28 c79 -58 76 -107 -8 -149 -72 -37 -150 -63 -162 -55 -11 6 10 43 48 84 21
22 30 64 24 109 -7 49 38 54 98 11z m-718 -101 c16 -11 29 -26 29 -33 0 -17
-29 -42 -60 -51 -14 -4 -38 -13 -55 -20 -16 -7 -60 -23 -96 -35 -37 -11 -74
-29 -82 -38 -23 -26 -34 -102 -16 -116 8 -6 21 -19 29 -30 13 -17 9 -24 -65
-92 -43 -40 -76 -76 -72 -80 6 -6 61 12 109 37 10 5 34 3 60 -4 34 -10 44 -18
46 -38 3 -22 -5 -29 -55 -52 -33 -15 -64 -27 -71 -27 -16 0 -15 -11 3 -34 20
-27 19 -64 -3 -106 -11 -19 -22 -47 -26 -62 -8 -33 1 -36 126 -40 48 -2 91 -7
96 -13 19 -19 22 -51 8 -71 -13 -17 -28 -19 -153 -21 -116 -1 -152 -6 -228
-28 -49 -15 -108 -29 -131 -32 -36 -4 -44 -1 -63 22 -25 33 -26 46 -6 85 10
19 23 30 37 30 35 0 152 31 165 44 26 24 84 149 75 158 -7 7 -40 -1 -94 -20
-138 -51 -165 -57 -183 -42 -37 31 -10 83 68 134 29 18 66 46 82 61 17 15 51
48 78 72 51 48 53 51 35 100 -10 27 -9 38 5 68 9 19 20 53 23 75 6 37 10 41
48 51 85 22 166 74 152 97 -6 11 -125 -31 -204 -70 -45 -23 -102 -79 -102
-102 0 -7 6 -34 14 -59 13 -42 12 -52 -4 -94 -21 -55 -56 -85 -71 -62 -5 8 -8
52 -7 98 2 79 1 85 -22 103 -14 10 -39 20 -56 24 -48 9 -60 -11 -68 -112 -11
-130 -44 -177 -82 -119 -23 35 -13 131 20 188 13 23 27 59 30 80 8 41 20 47
38 17 12 -19 48 -28 48 -12 0 4 24 16 53 26 48 17 96 37 206 89 111 52 195 74
279 76 70 1 89 -2 113 -20z m1056 -146 c16 -6 36 -50 28 -63 -3 -4 -26 -11
-52 -15 -78 -12 -87 -14 -118 -20 -75 -14 -133 -30 -173 -47 l-43 -19 43 -29
c24 -16 54 -39 67 -51 20 -19 21 -24 9 -33 -21 -17 -58 -81 -58 -102 0 -12 20
-33 52 -54 28 -19 56 -40 63 -46 6 -6 24 -19 40 -27 17 -9 50 -34 74 -57 25
-22 47 -38 49 -35 2 2 21 -9 43 -24 21 -16 53 -34 71 -41 118 -46 198 -97 198
-126 0 -11 -24 -14 -126 -14 l-126 0 -69 40 c-38 23 -69 45 -69 50 0 6 -6 10
-13 10 -7 0 -43 29 -80 66 -37 36 -72 62 -77 59 -6 -4 -9 -1 -8 5 2 7 -5 17
-16 23 -10 7 -29 22 -42 35 -32 31 -54 28 -101 -15 -72 -67 -120 -102 -181
-133 -33 -16 -62 -30 -66 -30 -3 0 -25 -9 -49 -19 -23 -11 -60 -24 -82 -30
l-40 -10 36 32 c20 18 77 61 128 97 101 70 146 113 174 163 23 43 22 51 -13
87 -40 41 -30 54 37 47 45 -5 58 -2 74 14 23 23 25 52 3 73 -22 23 -52 20
-103 -10 l-44 -25 -71 18 c-77 19 -145 56 -126 68 6 4 43 11 82 16 39 5 90 18
112 28 23 11 104 41 181 66 77 26 154 53 170 60 61 28 91 34 144 29 30 -3 61
-8 68 -11z m-1989 -955 c7 -7 12 -26 12 -42 0 -22 -3 -27 -9 -17 -5 8 -7 21
-3 30 3 9 1 13 -3 8 -5 -4 -12 -26 -16 -50 l-6 -42 -2 48 -1 47 -40 0 -40 0 0
-110 0 -110 45 0 c39 0 45 3 51 25 8 32 22 32 34 -1 21 -53 19 -54 -100 -54
-91 0 -110 3 -110 15 0 8 5 15 10 15 13 0 13 217 0 225 -25 15 7 25 84 25 50
0 87 -5 94 -12z m138 -25 c25 -60 64 -143 68 -143 2 0 2 10 -1 23 -4 16 -3 19
6 12 8 -8 8 -27 0 -73 -9 -50 -15 -62 -30 -62 -10 0 -19 7 -19 15 0 25 -43
149 -57 165 -11 12 -13 2 -13 -64 0 -69 2 -78 20 -83 37 -10 23 -33 -21 -33
-34 0 -40 3 -35 18 4 16 10 185 7 225 -1 11 -9 17 -23 17 -19 0 -20 2 -8 10 8
5 32 10 53 10 35 0 39 -3 53 -37z m214 21 c11 -12 11 -15 -1 -12 -11 2 -15
-18 -17 -108 -3 -109 -2 -112 20 -117 40 -11 5 -28 -48 -25 -43 3 -49 6 -45
23 11 63 12 117 3 111 -18 -11 -25 35 -12 78 7 23 14 47 16 54 5 17 69 15 84
-4z m228 -11 c6 -9 12 -24 12 -32 1 -9 9 0 18 19 l17 35 119 1 118 1 -6 -41
c-9 -56 -22 -65 -30 -22 -6 30 -11 36 -31 36 l-25 0 0 -110 0 -110 25 0 c16 0
25 -6 25 -15 0 -12 -14 -15 -70 -15 -53 0 -70 3 -70 14 0 8 7 16 15 20 12 4
15 26 15 111 l0 105 -28 0 c-23 0 -31 -8 -51 -51 -32 -66 -65 -92 -113 -87
l-38 4 0 -43 c0 -39 2 -43 24 -43 37 0 40 -17 5 -24 -56 -11 -109 -7 -109 8 0
8 7 16 15 20 12 4 15 26 15 111 0 93 -2 105 -17 105 -16 1 -16 2 1 15 27 21
146 11 164 -12z m395 21 c3 -3 1 -14 -5 -24 -9 -14 -5 -26 25 -62 34 -42 36
-48 30 -95 -5 -45 -3 -52 16 -62 36 -20 23 -31 -36 -31 -65 0 -100 13 -64 25
29 9 30 87 1 112 -11 10 -20 27 -20 38 0 12 -5 26 -10 31 -6 6 -14 25 -19 42
l-10 32 43 0 c23 0 45 -3 49 -6z m135 -11 c-2 -10 -13 -19 -26 -21 -12 -2 -20
-7 -17 -12 9 -14 -6 -58 -21 -64 -11 -4 -13 5 -10 47 3 29 5 55 6 60 0 4 16 7
36 7 28 0 35 -3 32 -17z m385 -13 c-3 -24 -2 -24 6 -3 6 12 22 23 38 26 40 8
196 3 211 -6 7 -5 12 -4 12 2 0 6 20 11 45 11 40 0 45 -2 45 -23 0 -13 11 -38
25 -57 14 -19 25 -44 25 -56 0 -12 6 -24 13 -27 7 -3 19 -23 26 -46 8 -29 17
-41 31 -41 10 0 21 -4 24 -9 7 -10 -41 -21 -91 -21 -37 0 -38 4 -18 53 5 13 2
17 -13 17 -11 0 -26 2 -34 5 -10 4 -13 -4 -10 -35 l4 -40 -36 0 c-37 0 -51 22
-21 34 8 3 20 17 25 31 5 14 17 25 26 25 13 0 15 6 9 28 -16 66 -68 142 -96
142 -4 0 -10 -13 -14 -30 -4 -16 -13 -30 -21 -30 -10 0 -14 -14 -14 -56 0 -40
-4 -55 -12 -52 -7 3 -14 17 -16 31 -3 22 -8 27 -33 27 -31 0 -36 -8 -16 -29
10 -11 10 -13 0 -7 -10 5 -13 -5 -13 -38 l0 -46 45 0 c38 0 45 3 45 19 0 11 4
22 9 26 12 7 31 -26 31 -54 0 -20 -6 -21 -99 -21 -93 0 -135 11 -97 26 13 5
16 26 16 115 0 121 -8 133 -56 82 -21 -23 -27 -25 -34 -13 -6 8 -10 21 -10 28
0 8 -8 12 -17 10 -16 -3 -18 -18 -21 -110 -2 -100 -1 -107 18 -113 37 -12 10
-25 -50 -25 -62 0 -83 12 -52 29 17 9 19 22 18 113 -1 91 -3 103 -19 106 -12
3 -20 -4 -24 -18 -3 -11 -11 -19 -17 -17 -6 2 -16 -3 -23 -12 -11 -14 -12 -12
-13 12 0 59 12 65 134 63 l111 -1 -2 -25z m474 14 c2 -6 -5 -14 -15 -16 -11
-3 -21 -18 -25 -37 -10 -49 -27 -36 -27 20 l0 50 32 -3 c17 -2 33 -8 35 -14z
m274 -2 c3 -4 3 -32 -1 -62 -4 -30 -8 -45 -9 -32 -2 35 -41 82 -68 82 -23 0
-23 -2 -23 -110 0 -105 1 -110 21 -110 12 0 19 -5 17 -12 -3 -8 -26 -14 -58
-16 -51 -3 -52 -2 -46 20 4 13 9 69 13 126 l6 102 -26 0 c-22 0 -27 -5 -27
-24 0 -29 -19 -44 -31 -25 -5 8 -9 29 -9 48 l0 34 118 -7 c64 -4 120 -10 123
-14z m-2281 -106 c0 -8 3 -21 6 -30 9 -22 -12 -20 -36 4 -27 27 -25 40 5 40
15 0 25 -6 25 -14z"/>
<path d="M5070 4875 c0 -8 4 -15 10 -15 5 0 7 7 4 15 -4 8 -8 15 -10 15 -2 0
-4 -7 -4 -15z"/>
<path d="M5093 4853 c-21 -8 -15 -18 12 -19 21 -2 24 1 14 12 -6 8 -12 14 -13
13 0 0 -7 -3 -13 -6z"/>
<path d="M5100 4781 c0 -5 5 -13 10 -16 6 -3 10 -2 10 4 0 5 -4 13 -10 16 -5
3 -10 2 -10 -4z"/>
<path d="M5140 4706 c0 -2 7 -7 16 -10 8 -3 12 -2 9 4 -6 10 -25 14 -25 6z"/>
<path d="M5216 4498 c3 -5 10 -6 15 -3 13 9 11 12 -6 12 -8 0 -12 -4 -9 -9z"/>
<path d="M5210 4458 c0 -19 2 -20 10 -8 13 19 13 30 0 30 -5 0 -10 -10 -10
-22z"/>
<path d="M2790 2340 c-9 -6 -10 -10 -3 -10 6 0 15 5 18 10 8 12 4 12 -15 0z"/>
<path d="M2930 2271 c0 -5 7 -12 16 -15 22 -9 24 -8 24 9 0 8 -9 15 -20 15
-11 0 -20 -4 -20 -9z"/>
<path d="M3006 2251 c-3 -5 1 -11 9 -15 9 -3 15 0 15 9 0 16 -16 20 -24 6z"/>
<path d="M2986 2208 c-16 -22 -15 -35 2 -24 9 5 24 46 17 46 -2 0 -11 -10 -19
-22z"/>
<path d="M2941 2191 c-8 -5 -9 -11 -3 -15 5 -3 12 1 16 9 6 17 6 18 -13 6z"/>
<path d="M3968 2273 c-7 -9 -7 -13 2 -13 9 0 9 -4 2 -13 -9 -10 0 -11 43 -3
43 8 52 13 43 24 -6 7 -17 11 -25 8 -7 -3 -13 -1 -13 4 0 13 -39 8 -52 -7z"/>
<path d="M2560 494 c0 -61 1 -64 24 -64 34 0 48 22 44 71 -3 40 -6 44 -35 50
l-33 6 0 -63z"/>
<path d="M3680 507 c0 -42 1 -44 30 -45 20 0 30 4 30 14 0 8 7 17 15 20 8 4
15 17 15 30 0 22 -4 24 -45 24 l-45 0 0 -43z"/>
</g>
</svg>
